<svg width="27" height="27" viewBox="0 0 27 27" fill="none" xmlns="http://www.w3.org/2000/svg">
<g id="instagram">
<path id="Vector" d="M13.5053 7.4355C10.1514 7.4355 7.44614 10.1408 7.44614 13.4947C7.44614 16.8486 10.1514 19.5539 13.5053 19.5539C16.8592 19.5539 19.5645 16.8486 19.5645 13.4947C19.5645 10.1408 16.8592 7.4355 13.5053 7.4355ZM13.5053 17.4339C11.3379 17.4339 9.56606 15.6673 9.56606 13.4947C9.56606 11.322 11.3327 9.55542 13.5053 9.55542C15.678 9.55542 17.4446 11.322 17.4446 13.4947C17.4446 15.6673 15.6727 17.4339 13.5053 17.4339ZM21.2256 7.18765C21.2256 7.97339 20.5928 8.60093 19.8124 8.60093C19.0266 8.60093 18.3991 7.96812 18.3991 7.18765C18.3991 6.40718 19.0319 5.77436 19.8124 5.77436C20.5928 5.77436 21.2256 6.40718 21.2256 7.18765ZM25.2387 8.62202C25.1491 6.72886 24.7167 5.0519 23.3297 3.67026C21.9481 2.28862 20.2711 1.8562 18.378 1.76128C16.4268 1.65054 10.5786 1.65054 8.62739 1.76128C6.7395 1.85093 5.06255 2.28335 3.67563 3.66499C2.28872 5.04663 1.86157 6.72358 1.76665 8.61675C1.65591 10.5679 1.65591 16.4162 1.76665 18.3673C1.8563 20.2605 2.28872 21.9375 3.67563 23.3191C5.06255 24.7007 6.73423 25.1332 8.62739 25.2281C10.5786 25.3388 16.4268 25.3388 18.378 25.2281C20.2711 25.1384 21.9481 24.706 23.3297 23.3191C24.7114 21.9375 25.1438 20.2605 25.2387 18.3673C25.3495 16.4162 25.3495 10.5732 25.2387 8.62202ZM22.718 20.4609C22.3067 21.4945 21.5104 22.2908 20.4715 22.7074C18.9159 23.3244 15.2245 23.182 13.5053 23.182C11.7862 23.182 8.0895 23.3191 6.53911 22.7074C5.50552 22.296 4.70923 21.4998 4.29263 20.4609C3.67563 18.9052 3.81802 15.2138 3.81802 13.4947C3.81802 11.7755 3.68091 8.07886 4.29263 6.52847C4.70396 5.49487 5.50024 4.69858 6.53911 4.28198C8.09478 3.66499 11.7862 3.80737 13.5053 3.80737C15.2245 3.80737 18.9211 3.67026 20.4715 4.28198C21.5051 4.69331 22.3014 5.4896 22.718 6.52847C23.335 8.08413 23.1926 11.7755 23.1926 13.4947C23.1926 15.2138 23.335 18.9105 22.718 20.4609Z" fill="white"/>
</g>
</svg>
