<svg width="105" height="149" viewBox="0 0 105 149" fill="none" xmlns="http://www.w3.org/2000/svg">
<g id="Asset 13" clip-path="url(#clip0_154_304)">
<g id="Layer 2">
<g id="Layer 1">
<path id="Vector" d="M21.5525 116.107C22.6133 116.092 23.6552 115.825 24.5922 115.327C25.5291 114.828 26.3342 114.114 26.9407 113.242V115.615H28.3014V101.057H26.9407V110.182C26.3332 112.403 24.4319 114.769 21.5525 114.769C18.8371 114.769 17.5736 113.552 17.5736 110.894V101.057H16.2129V110.87C16.2129 114.246 18.1082 116.107 21.5525 116.107Z" fill="white"/>
<path id="Vector_2" d="M47.7707 100.619C46.7612 100.631 45.7716 100.901 44.8964 101.405C44.0211 101.909 43.2894 102.629 42.7712 103.497C42.1638 101.605 40.633 100.619 38.3246 100.619C37.4155 100.625 36.5205 100.845 35.7114 101.26C34.9023 101.675 34.2015 102.275 33.6654 103.01V101.112H32.3047V105.851L32.1953 106.538H32.335V115.615H33.6957V106.106C34.1817 104.19 35.6822 101.982 38.355 101.982C40.7059 101.982 41.7568 103.15 41.7568 105.772V115.669H43.1175V106.21C43.5852 104.251 45.0857 101.951 47.801 101.951C50.158 101.951 51.2028 103.119 51.2028 105.741V115.639H52.5696V105.772C52.5393 102.402 50.887 100.619 47.7707 100.619Z" fill="white"/>
<path id="Vector_3" d="M58.1704 115.615V106.106C58.6563 104.19 60.1568 101.982 62.8296 101.982C65.1805 101.982 66.2314 103.15 66.2314 105.772V115.669H67.5921V106.21C68.0599 104.251 69.5603 101.951 72.2756 101.951C74.6326 101.951 75.6774 103.119 75.6774 105.741V115.639H77.0442V105.772C77.0442 102.402 75.3919 100.619 72.2756 100.619C71.2662 100.631 70.2766 100.901 69.4013 101.405C68.5261 101.909 67.7944 102.629 67.2762 103.497C66.6688 101.605 65.138 100.619 62.8296 100.619C61.9205 100.625 61.0255 100.845 60.2164 101.26C59.4072 101.675 58.7065 102.275 58.1704 103.01V101.112H56.8096V105.851L56.6699 106.514H56.8096V115.59L58.1704 115.615Z" fill="white"/>
<path id="Vector_4" d="M87.3342 116.107C88.5932 116.141 89.8388 115.84 90.9434 115.234C92.048 114.628 92.9722 113.739 93.6214 112.658L93.8583 112.214L92.6434 111.606L92.4126 112.019C91.875 112.88 91.1214 113.584 90.227 114.061C89.3326 114.538 88.3288 114.772 87.3159 114.739C84.5702 114.739 81.7759 112.968 81.4843 109.039H94.241V108.558C94.3017 107.482 94.1441 106.405 93.7776 105.392C93.4111 104.379 92.8435 103.45 92.1088 102.663C91.4628 102.007 90.6916 101.487 89.8412 101.135C88.9907 100.783 88.0783 100.605 87.158 100.613C83.6408 100.613 80.0811 103.271 80.0811 108.357C80.1175 113.686 83.8595 116.107 87.3342 116.107ZM87.1944 101.982C90.8392 101.982 92.6616 104.847 92.8924 107.682H81.5086C81.7455 104.847 83.5618 101.982 87.1944 101.982Z" fill="white"/>
<path id="Vector_5" d="M98.9613 106.149C99.1486 104.948 99.7715 103.859 100.711 103.09C101.65 102.321 102.84 101.927 104.052 101.982H104.544V100.619H104.052C103.082 100.593 102.119 100.789 101.237 101.193C100.355 101.597 99.5762 102.198 98.9613 102.949V101.081H97.6006V115.681H98.9613V106.149Z" fill="white"/>
<path id="Vector_6" d="M-0.000381241 123.748C-0.0231556 124.297 0.0646053 124.845 0.257675 125.359C0.450744 125.873 0.745173 126.343 1.12343 126.741C1.79715 127.399 2.70373 127.762 3.6444 127.751C5.64902 127.751 7.67795 126.224 7.67795 123.316V122.824H6.31723V123.316C6.31723 125.366 4.97474 126.443 3.65047 126.443C3.35852 126.446 3.06889 126.391 2.79868 126.28C2.52846 126.169 2.28313 126.006 2.07714 125.798C1.57705 125.237 1.31934 124.5 1.36034 123.748C1.36034 121.145 3.04908 119.934 6.66956 119.934H10.9218V138.701H12.2825V119.934H36.7025V118.571H6.68171C1.15987 118.571 -0.000381241 121.388 -0.000381241 123.748Z" fill="white"/>
<path id="Vector_7" d="M33.5194 135.738L29.3826 123.949L29.006 124.077L28.9148 123.827L28.8298 124.077L28.4471 123.949L24.3163 135.738L20.1856 123.967L18.8613 124.35L24.3163 139.839L28.9148 126.778L33.5194 139.839L38.9744 124.35L37.6441 123.967L33.5194 135.738Z" fill="white"/>
<path id="Vector_8" d="M43.0443 124.101H41.6836V138.689H43.0443V124.101Z" fill="white"/>
<path id="Vector_9" d="M42.3941 121.868C43.0718 121.868 43.6211 121.343 43.6211 120.694C43.6211 120.046 43.0718 119.52 42.3941 119.52C41.7164 119.52 41.167 120.046 41.167 120.694C41.167 121.343 41.7164 121.868 42.3941 121.868Z" fill="white"/>
<path id="Vector_10" d="M49.1742 116.661H47.8135V138.695H49.1742V116.661Z" fill="white"/>
<path id="Vector_11" d="M54.8353 124.101H53.4746V138.689H54.8353V124.101Z" fill="white"/>
<path id="Vector_12" d="M54.1851 121.868C54.8628 121.868 55.4122 121.343 55.4122 120.694C55.4122 120.046 54.8628 119.52 54.1851 119.52C53.5074 119.52 52.958 120.046 52.958 120.694C52.958 121.343 53.5074 121.868 54.1851 121.868Z" fill="white"/>
<path id="Vector_13" d="M70.3322 123.748H68.9654V126.486C68.3944 125.593 67.604 124.863 66.67 124.364C65.7361 123.866 64.69 123.616 63.6319 123.639C60.3637 123.639 57.0713 126.035 57.0713 131.383C57.0713 136.73 60.3637 139.127 63.6319 139.127C64.6892 139.149 65.7345 138.9 66.6682 138.402C67.6019 137.905 68.3928 137.176 68.9654 136.286V137.655C68.9654 140.976 67.3253 142.807 64.3426 142.807C62.0768 142.807 59.8595 141.311 59.8413 141.299L59.4282 140.988L58.6628 142.132L59.0334 142.412C59.0334 142.412 61.5969 144.176 64.3426 144.176C68.0907 144.176 70.3322 141.743 70.3322 137.655V123.748ZM63.6501 137.74C61.1352 137.74 58.4502 136.067 58.4502 131.358C58.4502 126.65 61.1352 124.977 63.6501 124.977C66.165 124.977 68.9047 126.656 68.9047 131.358C68.9047 136.061 66.1711 137.764 63.6319 137.764L63.6501 137.74Z" fill="white"/>
<path id="Vector_14" d="M85.7676 141.451V129.284C85.7676 125.926 84.0484 124.156 80.7864 124.156C79.8281 124.147 78.881 124.363 78.0205 124.785C77.16 125.207 76.4097 125.825 75.8295 126.589V117.16H74.4688V137.843H75.8295V129.697C76.2972 127.745 77.8645 125.494 80.7864 125.494C83.2891 125.494 84.4311 126.656 84.4311 129.259V141.426L85.7676 141.451Z" fill="white"/>
<path id="Vector_15" d="M103.597 140.8C102.427 139.985 101.022 139.579 99.5994 139.644C97.8864 139.644 96.0093 140.118 93.5734 141.177C93.3343 140.193 93.218 139.184 93.2272 138.172V125.196H98.5242V123.833H93.2272V119.386H91.8664V123.833H86.6969V125.196H91.8664V138.172C91.8619 139.378 92.0192 140.579 92.3342 141.743C91.2165 142.272 90.0926 142.844 88.9142 143.452C84.911 145.502 80.7681 147.631 76.7649 147.631C74.7907 147.631 73.1809 147.199 72.0996 146.415C71.6872 146.133 71.3477 145.757 71.1089 145.318C70.8702 144.879 70.7392 144.39 70.7267 143.89C70.7267 142.199 72.3304 140.404 75.2948 140.404C76.6682 140.432 78.0219 140.737 79.2746 141.301C80.5273 141.866 81.6531 142.678 82.5844 143.689L82.9307 144.048L83.8965 143.081L83.5624 142.734C82.5066 141.594 81.2318 140.678 79.8143 140.043C78.3968 139.407 76.8659 139.065 75.3131 139.036C71.4921 139.036 69.4268 141.542 69.4268 143.902C69.4338 144.596 69.6022 145.279 69.9185 145.897C70.2348 146.515 70.6904 147.05 71.2491 147.461C72.5613 148.483 74.4687 149.018 76.7649 149.018C81.1447 149.018 85.4942 146.78 89.6917 144.614C90.7609 144.06 91.7814 143.537 92.7837 143.057C93.3223 144.416 94.2702 145.575 95.4959 146.37C96.7216 147.166 98.1643 147.56 99.6237 147.497C103.165 147.497 105.024 145.496 105.024 143.513C105.014 142.98 104.88 142.458 104.632 141.987C104.384 141.516 104.029 141.109 103.597 140.8ZM99.6237 146.135C96.9266 146.135 95.0435 144.918 94.0169 142.485C96.307 141.475 98.0929 141.007 99.6237 141.007C102.43 141.007 103.706 142.308 103.706 143.513C103.682 144.821 102.278 146.135 99.6237 146.135Z" fill="white"/>
<path id="Vector_16" d="M8.24927 105.102L8.11562 105.023C5.53391 103.545 3.0919 102.152 3.0919 99.9072C3.0919 97.5469 5.19373 96.4762 7.14976 96.4762C9.57961 96.4762 10.9889 97.3096 11.9062 99.2745L12.1188 99.7308L13.3337 99.1225L13.1333 98.6844C11.9852 96.2511 10.096 95.1074 7.16191 95.1074C4.46477 95.1074 1.74334 96.756 1.74334 99.9011C1.74334 102.943 4.78065 104.646 7.43527 106.173L7.56283 106.252C9.96231 107.627 12.2221 108.929 12.2221 110.839C12.2221 113.242 10.3997 114.738 7.51424 114.738C3.65077 114.738 2.65453 111.977 2.65453 111.435V110.973H1.21484V111.49C1.28166 112.707 2.88537 116.101 7.45349 116.101C11.0983 116.101 13.5281 113.984 13.5281 110.839C13.5706 108.162 10.8674 106.611 8.24927 105.102Z" fill="white"/>
<path id="Vector_17" d="M86.6606 55.4866C85.0691 44.8468 77.3725 38.7026 71.717 35.01C68.0847 32.7892 64.3397 30.7587 60.4972 28.9266C59.4281 28.3913 58.3468 27.862 57.2776 27.3449C54.8478 26.1648 52.6063 25.0576 50.5956 23.9383C50.1096 23.6584 49.6236 23.3725 49.1559 23.0744L48.5059 22.6364C43.0326 18.8586 41.3682 14.2474 43.5551 8.88799C44.463 6.86578 45.9409 5.15315 47.8073 3.96046C49.8209 2.61919 52.1403 1.80936 54.5501 1.6062C55.9341 1.4668 57.3319 1.61356 58.6568 2.03737C59.9818 2.46117 61.2058 3.153 62.2528 4.06996C64.8303 6.16599 67.0184 8.70107 68.7162 11.5586L69.6699 11.1084L67.2097 4.25855L67.1003 4.07605C65.8341 2.9617 64.3826 2.0784 62.8116 1.46628C60.1601 0.309065 57.2616 -0.165647 54.3801 0.0853552C51.7445 0.357975 49.2141 1.26596 47.0054 2.73162C44.8303 4.17148 43.0491 6.133 41.8238 8.43782C40.4011 10.9864 39.8338 13.9254 40.2057 16.8214C40.5776 19.7174 41.8689 22.417 43.8892 24.5223C45.7662 29.5775 45.9606 33.3492 44.448 35.4358C43.986 36.0138 43.3984 36.4786 42.73 36.7949C42.0616 37.1111 41.3299 37.2705 40.5906 37.2608L32.803 37.273V38.6965H44.1078V75.142C44.1428 78.6763 44.9733 82.1572 46.5377 85.3256C48.2143 88.5304 51.0333 90.9864 54.4347 92.2058C54.0581 92.2058 53.6815 92.2484 53.3048 92.2545C51.5782 92.3044 49.8502 92.2251 48.1353 92.0173C41.6421 91.1854 35.5449 88.4302 30.6257 84.105C25.7066 79.7797 22.1896 74.0816 20.5259 67.7412C18.8621 61.4009 19.1275 54.7074 21.2878 48.5191C23.4482 42.3308 27.4051 36.9297 32.6511 33.0086L33.1492 32.6375L32.159 31.6337L31.7885 31.9075C26.3336 35.9977 22.2218 41.6253 19.9798 48.0698C17.7378 54.5143 17.4676 61.4822 19.2038 68.0814C20.9399 74.6805 24.6034 80.6106 29.7252 85.1122C34.8469 89.6137 41.1938 92.4819 47.9531 93.3495C49.406 93.5316 50.8687 93.623 52.3329 93.6233C52.6731 93.6233 53.0193 93.6233 53.3595 93.6233C55.1633 93.5701 56.9595 93.3666 58.7295 93.0149C58.9482 92.9784 59.1729 92.9298 59.3977 92.8811L59.6893 92.8203C66.3898 91.2642 72.4923 87.7867 77.251 82.8131C78.5352 81.4967 79.7038 80.072 80.7439 78.5548C81.6067 77.3089 82.3879 76.0084 83.0827 74.6614C86.3022 68.4199 87.5718 61.6065 86.6606 55.4866ZM62.5687 90.6789C57.7575 92.2667 52.3997 89.8212 50.6199 85.2404C50.5287 85.0031 50.4498 84.7598 50.3708 84.5165C49.5235 81.4807 49.1305 78.3358 49.2045 75.1846V38.6843H63.8565V37.273H46.1672C48.761 35.7947 50.1339 33.0633 50.1339 29.2977C52.7035 30.8733 55.516 32.3394 58.2435 33.696L58.4987 33.8237C63.3584 36.2997 68.1087 38.7756 72.4703 41.8294C75.2465 43.7392 77.7588 46.0076 79.9421 48.5759C82.2678 51.3436 83.8077 54.6864 84.4009 58.2546C85.2033 63.6555 84.3007 69.1726 81.8192 74.0348C81.1639 75.364 80.4148 76.6448 79.5776 77.8673C75.4192 83.8495 69.4592 88.343 62.5687 90.6911V90.6789Z" fill="white"/>
</g>
</g>
</g>
<defs>
<clipPath id="clip0_154_304">
<rect width="105" height="149" fill="white"/>
</clipPath>
</defs>
</svg>
