<svg width="48" height="37" viewBox="0 0 48 37" fill="none" xmlns="http://www.w3.org/2000/svg">
<path id="Vector" d="M32.625 36.0938L31.5 33.8438L31.7812 33.6094C32.6875 32.8906 33.5234 32.1094 34.2891 31.2656C35.0547 30.4219 35.75 29.5156 36.375 28.5469L36.4219 28.4531C37.0781 27.3906 37.6484 26.25 38.1328 25.0312C38.6172 23.8125 38.9844 22.5312 39.2344 21.1875V21.0469L36.9844 20.5312C35.5469 20.25 34.2188 19.7656 33 19.0781C31.7812 18.3906 30.7031 17.5625 29.7656 16.5938C28.9531 15.7188 28.3125 14.7031 27.8438 13.5469C27.375 12.3906 27.1406 11.1562 27.1406 9.84375C27.1406 9.8125 27.1406 9.78906 27.1406 9.77344C27.1406 9.75781 27.1406 9.73438 27.1406 9.70312C27.1406 9.64062 27.1406 9.58594 27.1406 9.53906C27.1406 9.49219 27.1406 9.4375 27.1406 9.375C27.1406 8.0625 27.3984 6.82812 27.9141 5.67188C28.4297 4.51562 29.125 3.53125 30 2.71875C30.9062 1.875 31.9453 1.21094 33.1172 0.726562C34.2891 0.242188 35.5312 0 36.8438 0C36.875 0 36.9062 0 36.9375 0C36.9688 0 37.0156 0 37.0781 0H37.0312C37.0938 0 37.1484 0 37.1953 0C37.2422 0 37.2969 0 37.3594 0C38.8906 0 40.3203 0.320312 41.6484 0.960938C42.9766 1.60156 44.0938 2.46875 45 3.5625C45.9375 4.71875 46.6719 6.03125 47.2031 7.5C47.7344 8.96875 48 10.5156 48 12.1406C48 12.2656 48 12.3828 48 12.4922C48 12.6016 48 12.7031 48 12.7969V12.75C48 15.3125 47.6172 17.7578 46.8516 20.0859C46.0859 22.4141 45.0156 24.5625 43.6406 26.5312L43.6875 26.4375C42.3438 28.4375 40.7812 30.2344 39 31.8281C37.2188 33.4219 35.2656 34.75 33.1406 35.8125L33 35.9062L32.625 36.0938ZM32.625 34.0781L33.0469 34.9219C35.0781 33.8594 36.9297 32.5781 38.6016 31.0781C40.2734 29.5781 41.7188 27.9062 42.9375 26.0625L43.0312 25.9688C44.3125 24.125 45.3203 22.0781 46.0547 19.8281C46.7891 17.5781 47.1562 15.2344 47.1562 12.7969C47.1562 12.7031 47.1562 12.6016 47.1562 12.4922C47.1562 12.3828 47.1562 12.2812 47.1562 12.1875C47.1562 10.6562 46.9062 9.20312 46.4062 7.82812C45.9062 6.45312 45.2188 5.21875 44.3438 4.125C43.5 3.125 42.4766 2.33594 41.2734 1.75781C40.0703 1.17969 38.7656 0.890625 37.3594 0.890625C37.2969 0.890625 37.2422 0.890625 37.1953 0.890625C37.1484 0.890625 37.0938 0.890625 37.0312 0.890625C37 0.890625 36.9688 0.890625 36.9375 0.890625C36.9062 0.890625 36.875 0.890625 36.8438 0.890625C35.625 0.890625 34.4844 1.10938 33.4219 1.54688C32.3594 1.98438 31.4219 2.57812 30.6094 3.32812C29.7969 4.07812 29.1562 4.97656 28.6875 6.02344C28.2188 7.07031 27.9844 8.1875 27.9844 9.375C27.9844 9.4375 27.9844 9.49219 27.9844 9.53906C27.9844 9.58594 27.9844 9.64062 27.9844 9.70312C27.9844 9.73438 27.9844 9.76562 27.9844 9.79688C27.9844 9.82812 27.9844 9.84375 27.9844 9.84375C27.9844 11.0625 28.1953 12.1953 28.6172 13.2422C29.0391 14.2891 29.625 15.2188 30.375 16.0312C31.25 16.9375 32.2578 17.7109 33.3984 18.3516C34.5391 18.9922 35.7656 19.4375 37.0781 19.6875H37.125L40.2656 20.4375L40.1719 20.8125C39.9219 22.3438 39.5312 23.7969 39 25.1719C38.4688 26.5469 37.8281 27.8438 37.0781 29.0625L37.1719 28.9219C36.5156 29.9219 35.8125 30.8516 35.0625 31.7109C34.3125 32.5703 33.5 33.3594 32.625 34.0781ZM5.53125 36.0938L4.40625 33.8438L4.6875 33.6094C5.59375 32.8906 6.42969 32.1094 7.19531 31.2656C7.96094 30.4219 8.65625 29.5156 9.28125 28.5469L9.32812 28.4531C9.98438 27.3906 10.5469 26.25 11.0156 25.0312C11.4844 23.8125 11.8438 22.5312 12.0938 21.1875L12.1406 21.0469L9.84375 20.5312C8.40625 20.25 7.07812 19.7656 5.85938 19.0781C4.64062 18.3906 3.5625 17.5625 2.625 16.5938C1.8125 15.7188 1.17188 14.7031 0.703125 13.5469C0.234375 12.3906 0 11.1719 0 9.89062C0 9.85938 0 9.82812 0 9.79688C0 9.76562 0 9.73438 0 9.70312C0 9.64062 0 9.58594 0 9.53906C0 9.49219 0 9.4375 0 9.375C0 8.0625 0.257812 6.82812 0.773438 5.67188C1.28906 4.51562 2 3.51562 2.90625 2.67188C3.8125 1.85938 4.84375 1.21094 6 0.726562C7.15625 0.242188 8.40625 0 9.75 0C9.78125 0 9.8125 0 9.84375 0C9.875 0 9.90625 0 9.9375 0C10 0 10.0547 0 10.1016 0C10.1484 0 10.2031 0 10.2656 0C11.7969 0 13.2266 0.320312 14.5547 0.960938C15.8828 1.60156 17 2.45312 17.9062 3.51562V3.5625C18.8438 4.71875 19.5781 6.03125 20.1094 7.5C20.6406 8.96875 20.9062 10.5156 20.9062 12.1406C20.9062 12.2656 20.9062 12.375 20.9062 12.4688C20.9062 12.5625 20.9062 12.6719 20.9062 12.7969V12.75C20.9062 15.3125 20.5234 17.7578 19.7578 20.0859C18.9922 22.4141 17.9219 24.5469 16.5469 26.4844L16.5938 26.4375C15.25 28.4375 13.6875 30.2344 11.9062 31.8281C10.125 33.4219 8.17188 34.75 6.04688 35.8125L5.90625 35.9062L5.53125 36.0938ZM5.53125 34.0781L5.95312 34.9219C7.98438 33.8281 9.82812 32.5312 11.4844 31.0312C13.1406 29.5312 14.5781 27.875 15.7969 26.0625L15.8438 25.9688C17.1562 24.125 18.1797 22.0781 18.9141 19.8281C19.6484 17.5781 20.0156 15.2188 20.0156 12.75C20.0156 12.6562 20.0156 12.5625 20.0156 12.4688C20.0156 12.375 20.0156 12.2812 20.0156 12.1875C20.0156 10.6562 19.7656 9.20312 19.2656 7.82812C18.7656 6.45312 18.0781 5.20312 17.2031 4.07812L17.25 4.125C16.4062 3.125 15.3828 2.32812 14.1797 1.73438C12.9766 1.14062 11.6719 0.84375 10.2656 0.84375C10.2031 0.84375 10.1406 0.851562 10.0781 0.867188C10.0156 0.882812 9.95312 0.890625 9.89062 0.890625H9.9375C9.90625 0.890625 9.875 0.890625 9.84375 0.890625C9.8125 0.890625 9.78125 0.890625 9.75 0.890625C8.53125 0.890625 7.39062 1.10938 6.32812 1.54688C5.26562 1.98438 4.3125 2.57812 3.46875 3.32812H3.51562C2.70312 4.07812 2.05469 4.97656 1.57031 6.02344C1.08594 7.07031 0.84375 8.1875 0.84375 9.375C0.84375 9.40625 0.851562 9.45312 0.867188 9.51562C0.882812 9.57812 0.890625 9.64062 0.890625 9.70312C0.890625 9.73438 0.890625 9.75781 0.890625 9.77344C0.890625 9.78906 0.890625 9.8125 0.890625 9.84375C0.890625 11.0312 1.10156 12.1562 1.52344 13.2188C1.94531 14.2812 2.53125 15.2188 3.28125 16.0312C4.15625 16.9375 5.17188 17.7031 6.32812 18.3281C7.48438 18.9531 8.71875 19.3906 10.0312 19.6406L10.0781 19.6875L13.1719 20.3906L13.125 20.8125C12.8438 22.3438 12.4453 23.7891 11.9297 25.1484C11.4141 26.5078 10.7812 27.7969 10.0312 29.0156L10.0781 28.9219C9.45312 29.9219 8.75781 30.8516 7.99219 31.7109C7.22656 32.5703 6.40625 33.3594 5.53125 34.0781Z" fill="#749383"/>
</svg>
