<svg width="96" height="49" viewBox="0 0 96 49" fill="none" xmlns="http://www.w3.org/2000/svg">
<g id="Layer 2">
<g id="Layer 1">
<path id="Vector" d="M19.6209 19.0869C20.5865 19.0733 21.5349 18.83 22.3877 18.3771C23.2405 17.9243 23.9733 17.2749 24.5254 16.4826V18.639H25.7639V5.40759H24.5254V13.7014C23.9724 15.7196 22.2418 17.8705 19.6209 17.8705C17.1494 17.8705 15.9993 16.7646 15.9993 14.3483V5.40759H14.7607V14.3262C14.7607 17.395 16.4859 19.0869 19.6209 19.0869Z" fill="white"/>
<path id="Vector_2" d="M43.4855 5.00952C42.5667 5.02009 41.666 5.26605 40.8693 5.72392C40.0726 6.18179 39.4066 6.83627 38.935 7.62485C38.3821 5.90526 36.9887 5.00952 34.8876 5.00952C34.0601 5.01528 33.2454 5.21484 32.509 5.5922C31.7725 5.96956 31.1347 6.51422 30.6467 7.18251V5.4574H29.4081V9.76466L29.3086 10.3895H29.4358V18.6391H30.6743V9.99688C31.1167 8.25518 32.4824 6.24807 34.9152 6.24807C37.055 6.24807 38.0116 7.30968 38.0116 9.69278V18.6888H39.2501V10.0909C39.6759 8.31047 41.0416 6.22042 43.5132 6.22042C45.6585 6.22042 46.6095 7.28204 46.6095 9.66514V18.6612H47.8536V9.69278C47.826 6.62959 46.322 5.00952 43.4855 5.00952Z" fill="white"/>
<path id="Vector_3" d="M52.9507 18.6391V9.99688C53.393 8.25518 54.7587 6.24807 57.1916 6.24807C59.3314 6.24807 60.288 7.30968 60.288 9.69278V18.6888H61.5265V10.0909C61.9523 8.31047 63.318 6.22042 65.7895 6.22042C67.9349 6.22042 68.8859 7.28204 68.8859 9.66514V18.6612H70.13V9.69278C70.13 6.62959 68.626 5.00952 65.7895 5.00952C64.8707 5.02009 63.97 5.26605 63.1733 5.72392C62.3766 6.18179 61.7107 6.83627 61.239 7.62485C60.6861 5.90526 59.2927 5.00952 57.1916 5.00952C56.3641 5.01528 55.5495 5.21484 54.813 5.5922C54.0765 5.96956 53.4387 6.51422 52.9507 7.18251V5.4574H51.7121V9.76466L51.585 10.3673H51.7121V18.6169L52.9507 18.6391Z" fill="white"/>
<path id="Vector_4" d="M79.4974 19.0869C80.6434 19.1177 81.7771 18.8438 82.7826 18.2929C83.788 17.7421 84.6292 16.9342 85.2201 15.9518L85.4358 15.5482L84.3299 14.9952L84.1198 15.3712C83.6306 16.1532 82.9446 16.793 82.1305 17.2267C81.3164 17.6605 80.4027 17.8729 79.4808 17.8428C76.9816 17.8428 74.4382 16.2338 74.1728 12.6619H85.7841V12.2251C85.8394 11.2472 85.6959 10.2683 85.3623 9.34746C85.0288 8.4266 84.512 7.58289 83.8434 6.86726C83.2553 6.27069 82.5534 5.79834 81.7793 5.47826C81.0052 5.15817 80.1747 4.99686 79.3371 5.00391C76.1356 5.00391 72.8955 7.42018 72.8955 12.0426C72.9287 16.8862 76.3347 19.0869 79.4974 19.0869ZM79.3702 6.24799C82.6878 6.24799 84.3465 8.85225 84.5566 11.4289H74.1949C74.4105 8.85225 76.0637 6.24799 79.3702 6.24799Z" fill="white"/>
<path id="Vector_5" d="M90.0794 10.0355C90.2498 8.94445 90.8169 7.95463 91.6719 7.25573C92.5269 6.55683 93.6097 6.198 94.7129 6.248H95.1607V5.00945H94.7129C93.8302 4.98569 92.9537 5.16417 92.1506 5.53122C91.3475 5.89827 90.639 6.44417 90.0794 7.12715V5.42968H88.8408V18.6998H90.0794V10.0355Z" fill="white"/>
<path id="Vector_6" d="M0.00320852 26.0316C-0.0175211 26.5305 0.0623603 27.0285 0.238095 27.4958C0.41383 27.9632 0.681824 28.3904 1.02612 28.752C1.63935 29.3496 2.46453 29.6797 3.32074 29.6699C5.14539 29.6699 6.99215 28.282 6.99215 25.6391V25.1912H5.7536V25.6391C5.7536 27.5024 4.53164 28.4811 3.32627 28.4811C3.06053 28.4839 2.79691 28.4335 2.55096 28.3329C2.305 28.2322 2.08169 28.0833 1.8942 27.895C1.43902 27.3845 1.20444 26.7146 1.24176 26.0316C1.24176 23.6651 2.77888 22.5648 6.0743 22.5648H9.94476V39.6225H11.1833V22.5648H33.4108V21.3263H6.08536C1.05929 21.3263 0.00320852 23.8863 0.00320852 26.0316Z" fill="white"/>
<path id="Vector_7" d="M30.5139 36.9297L26.7485 26.214L26.4057 26.3302L26.3227 26.1035L26.2453 26.3302L25.897 26.214L22.1371 36.9297L18.3772 26.2306L17.1719 26.579L22.1371 40.6564L26.3227 28.7851L30.5139 40.6564L35.4791 26.579L34.2682 26.2306L30.5139 36.9297Z" fill="white"/>
<path id="Vector_8" d="M39.1829 26.3522H37.9443V39.6113H39.1829V26.3522Z" fill="white"/>
<path id="Vector_9" d="M38.5915 24.323C39.2084 24.323 39.7084 23.8452 39.7084 23.2559C39.7084 22.6665 39.2084 22.1887 38.5915 22.1887C37.9747 22.1887 37.4746 22.6665 37.4746 23.2559C37.4746 23.8452 37.9747 24.323 38.5915 24.323Z" fill="white"/>
<path id="Vector_10" d="M44.762 19.59H43.5234V39.6169H44.762V19.59Z" fill="white"/>
<path id="Vector_11" d="M49.9153 26.3522H48.6768V39.6113H49.9153V26.3522Z" fill="white"/>
<path id="Vector_12" d="M49.3239 24.323C49.9408 24.323 50.4408 23.8452 50.4408 23.2559C50.4408 22.6665 49.9408 22.1887 49.3239 22.1887C48.7071 22.1887 48.207 22.6665 48.207 23.2559C48.207 23.8452 48.7071 24.323 49.3239 24.323Z" fill="white"/>
<path id="Vector_13" d="M64.0205 26.0316H62.7764V28.5197C62.2566 27.7087 61.5372 27.0448 60.6871 26.5917C59.8371 26.1386 58.8848 25.9115 57.9218 25.9321C54.947 25.9321 51.9502 28.1106 51.9502 32.9708C51.9502 37.831 54.947 40.0095 57.9218 40.0095C58.8841 40.0296 59.8356 39.8029 60.6855 39.3508C61.5353 38.8988 62.2552 38.2366 62.7764 37.4273V38.6714C62.7764 41.6904 61.2835 43.3547 58.5687 43.3547C56.5063 43.3547 54.4881 41.9945 54.4715 41.9834L54.0955 41.7014L53.3989 42.7409L53.7361 42.9953C53.7361 42.9953 56.0695 44.5987 58.5687 44.5987C61.9802 44.5987 64.0205 42.387 64.0205 38.6714V26.0316ZM57.9383 38.7488C55.6492 38.7488 53.2053 37.2283 53.2053 32.9487C53.2053 28.669 55.6492 27.1485 57.9383 27.1485C60.2274 27.1485 62.7211 28.6746 62.7211 32.9487C62.7211 37.2227 60.233 38.7709 57.9218 38.7709L57.9383 38.7488Z" fill="white"/>
<path id="Vector_14" d="M78.0705 42.1217V31.0632C78.0705 28.0111 76.5057 26.4021 73.5365 26.4021C72.6643 26.3943 71.8022 26.5902 71.019 26.9742C70.2357 27.3581 69.5528 27.9195 69.0247 28.6138V20.0435H67.7861V38.8428H69.0247V31.4392C69.4504 29.6643 70.877 27.6185 73.5365 27.6185C75.8146 27.6185 76.8541 28.6746 76.8541 31.0411V42.0995L78.0705 42.1217Z" fill="white"/>
<path id="Vector_15" d="M94.2992 41.5299C93.2348 40.7895 91.9562 40.4203 90.6609 40.4794C89.1017 40.4794 87.3932 40.9107 85.1759 41.8728C84.9583 40.9788 84.8525 40.0613 84.8608 39.1413V27.3475H89.6823V26.1089H84.8608V22.0671H83.6222V26.1089H78.9169V27.3475H83.6222V39.1413C83.6181 40.2374 83.7613 41.3291 84.048 42.387C83.0306 42.868 82.0077 43.3878 80.935 43.9407C77.2913 45.804 73.5203 47.7393 69.8766 47.7393C68.0796 47.7393 66.6143 47.3467 65.6301 46.6334C65.2548 46.3775 64.9457 46.0359 64.7284 45.6369C64.5111 45.2379 64.3919 44.793 64.3805 44.3388C64.3805 42.8017 65.8402 41.1706 68.5385 41.1706C69.7886 41.1955 71.0207 41.4728 72.1609 41.9859C73.3011 42.499 74.3259 43.2372 75.1736 44.1563L75.4887 44.4826L76.3679 43.6034L76.0638 43.2882C75.1028 42.2515 73.9424 41.4194 72.6522 40.8418C71.362 40.2641 69.9685 39.9528 68.5551 39.9265C65.0772 39.9265 63.1973 42.2045 63.1973 44.3499C63.2037 44.9808 63.3569 45.6015 63.6448 46.163C63.9327 46.7244 64.3474 47.2111 64.856 47.5844C66.0503 48.5134 67.7865 48.9999 69.8766 48.9999C73.8631 48.9999 77.8221 46.9652 81.6428 44.9968C82.6159 44.4936 83.5448 44.0181 84.4571 43.5813C84.9473 44.8172 85.8102 45.8699 86.9258 46.5932C88.0415 47.3165 89.3547 47.6746 90.683 47.6176C93.9066 47.6176 95.5985 45.7985 95.5985 43.996C95.5894 43.5121 95.4671 43.037 95.2414 42.6088C95.0158 42.1806 94.6931 41.8111 94.2992 41.5299ZM90.683 46.3791C88.2281 46.3791 86.514 45.2732 85.5796 43.0615C87.6641 42.1437 89.2897 41.7179 90.683 41.7179C93.2375 41.7179 94.3987 42.9012 94.3987 43.996C94.3766 45.1848 93.0993 46.3791 90.683 46.3791Z" fill="white"/>
<path id="Vector_16" d="M7.51222 9.08452L7.39057 9.01264C5.04065 7.66904 2.81791 6.40284 2.81791 4.36256C2.81791 2.21722 4.73102 1.24408 6.51143 1.24408C8.72312 1.24408 10.0059 2.00158 10.8408 3.78752L11.0343 4.20221L12.1402 3.64929L11.9577 3.25119C10.9127 1.0395 9.1931 0 6.52249 0C4.06751 0 1.59042 1.49842 1.59042 4.35703C1.59042 7.12164 4.35503 8.66983 6.7713 10.0577L6.88741 10.1295C9.07146 11.3792 11.1283 12.5624 11.1283 14.2986C11.1283 16.4826 9.46956 17.8428 6.84318 17.8428C3.32659 17.8428 2.4198 15.3325 2.4198 14.8404V14.4202H1.10938V14.8902C1.1702 15.9961 2.62991 19.0814 6.78789 19.0814C10.1054 19.0814 12.3171 17.1572 12.3171 14.2986C12.3558 11.8657 9.89531 10.4558 7.51222 9.08452Z" fill="white"/>
</g>
</g>
</svg>
