<svg width="100" height="100" viewBox="0 0 100 100" fill="none" xmlns="http://www.w3.org/2000/svg">
<g id="Group 49">
<circle id="Ellipse 7" cx="50" cy="50" r="50" fill="#556A83"/>
<path id="Vector" fill-rule="evenodd" clip-rule="evenodd" d="M42.62 24.4668C41.5273 24.3973 40.6486 24.6609 39.9603 25.1667C39.1614 25.7536 38.6091 26.6861 38.3149 27.8891C38.2456 28.1723 38.1906 28.4715 38.1496 28.7853C37.7544 28.784 37.3907 28.8285 37.0574 28.9134C36.9136 28.6992 36.7397 28.5073 36.5369 28.3416C35.391 27.4058 33.2352 27.2644 31.8402 28.6822C30.4451 27.2644 28.2893 27.4058 27.1435 28.3416C25.8757 29.377 25.7375 31.4449 27.0028 33.5156C27.8026 34.9071 29.8296 36.3226 31.5357 37.2513C31.7252 37.3546 31.9553 37.3546 32.1447 37.2513C32.8288 36.8789 33.5688 36.4296 34.2576 35.9355C34.2936 36.2096 34.337 36.4927 34.3878 36.7835C32.9687 37.956 32.1235 39.2247 31.7503 40.5614C31.1773 42.6143 31.7409 44.8691 33.1808 47.256C31.6229 46.1285 29.8986 45.3847 27.3571 45.6352C26.1 45.7591 25.0374 46.1644 24.1941 46.9271C23.4192 47.6278 22.8236 48.6395 22.4616 50.0558C20.957 50.8656 19.7821 51.9069 19.072 53.2668C19.047 53.3135 19.0279 53.3638 19.0157 53.4164C19.0024 53.4734 18.9977 53.5314 19.001 53.5883C19.0069 53.6966 19.0411 53.7972 19.0964 53.8834C19.1512 53.9698 19.2286 54.0438 19.3251 54.0962C19.3758 54.1239 19.4309 54.1448 19.4889 54.1578C19.542 54.1698 19.5958 54.1747 19.6489 54.1729C25.8725 54.025 29.2746 55.9334 31.6112 58.64C31.5865 58.6587 31.5623 58.6779 31.5384 58.6973C30.2705 59.7326 30.1325 61.8007 31.3977 63.8714C32.1974 65.2629 34.2245 66.6782 35.9305 67.6071C36.1201 67.7102 36.3502 67.7102 36.5397 67.6071C36.6723 67.535 36.8069 67.4598 36.9429 67.3821C38.5361 69.9173 40.5162 72.1633 43.7516 73.4864C46.9829 74.808 51.4976 75.2082 58.2118 73.9634C59.4913 77.3888 62.709 79.597 65.6821 79.9492C67.7635 80.1957 69.7237 79.5527 70.9104 77.8618C72.001 77.8222 72.9456 77.5597 73.7343 77.0715C75.0308 76.269 75.9517 74.8554 76.4001 72.7387C77.9119 71.8566 79.2878 70.5918 80.5222 68.9342C80.6922 68.7058 80.6832 68.393 80.5001 68.1747C80.317 67.9562 80.0067 67.8879 79.7465 68.0086C74.6707 70.3643 69.5424 70.4258 64.3368 67.1698C65.0208 67.0205 65.6123 66.7783 66.1112 66.447C67.0438 67.2689 68.216 68.0254 69.2666 68.5974C69.4561 68.7005 69.6862 68.7005 69.8758 68.5974C70.6953 68.1513 71.595 67.5947 72.3906 66.9831C72.5382 66.8697 72.6821 66.7544 72.8215 66.6375C72.9904 66.4958 73.1526 66.3517 73.3059 66.206C73.768 65.7671 74.1508 65.3111 74.411 64.8576C75.6737 62.7898 75.5353 60.7227 74.268 59.6876C73.9572 59.4339 73.5724 59.2386 73.1487 59.1169C73.4481 58.2652 73.5486 57.2798 73.4171 56.1458C77.6503 53.4294 79.3835 50.0456 77.2012 45.6819C77.8853 44.6864 78.4194 43.722 78.7778 42.8216C79.4678 41.0883 79.514 39.5632 78.8754 38.4346C78.5121 37.7926 77.9283 37.2617 77.0842 36.892C77.5879 35.2548 77.5497 33.8245 76.8847 32.7579C76.4606 32.0778 75.7813 31.5254 74.7875 31.1639C74.8872 30.8391 74.9727 30.5261 75.0437 30.2265C75.3562 28.9053 75.3768 27.8209 75.1135 27.0986C74.8815 26.4618 74.4515 26.05 73.8265 25.8865C73.3505 25.7619 72.791 25.912 72.1994 26.432C71.2667 27.2517 70.092 29.1326 68.6347 31.5591C68.054 32.5259 67.4245 33.5816 66.7415 34.689L48.6144 30.7507C47.6621 27.5466 47.4252 23.9508 46.966 21.9824C46.8222 21.3656 46.6473 20.8888 46.4462 20.5878C46.2147 20.2411 45.9284 20.0662 45.6266 20.0192C44.8455 19.8976 44.0894 20.3542 43.5341 21.3961C43.1405 22.1348 42.8281 23.2013 42.62 24.4668ZM73.4141 31.336C73.5796 30.847 73.7152 30.3816 73.8183 29.9459C74.0257 29.0694 74.1028 28.3253 73.997 27.7685C73.9307 27.4198 73.7978 27.1598 73.5032 27.0827C73.4413 27.0665 73.3832 27.1101 73.3115 27.1516C73.1167 27.2643 72.9128 27.4558 72.6889 27.7056C71.8763 28.6123 70.903 30.2154 69.7179 32.1888C67.3433 36.1426 64.1582 41.5488 59.8564 45.9918C55.4768 50.5149 49.9465 54.0353 42.9643 54.1263L42.9238 54.1255L42.8598 54.1191C38.5849 53.5593 36.2835 51.5216 34.191 49.692C32.3053 48.0431 30.6167 46.5579 27.4826 46.8669C26.5173 46.9621 25.6929 47.2528 25.0454 47.8385C24.3796 48.4407 23.907 49.3422 23.6223 50.6048C23.5819 50.7839 23.4628 50.9362 23.2971 51.0205C22.2841 51.5358 21.4254 52.1557 20.7893 52.9307C26.9844 53.0331 30.3922 55.1992 32.7847 58.0927C33.9012 57.8157 35.2557 58.0425 36.2351 59.0378C37.6301 57.6201 39.7859 57.7615 40.9319 58.6973C42.1993 59.7324 42.3376 61.7995 41.075 63.8673C40.8147 64.3209 40.432 64.7768 39.9698 65.2157C39.8165 65.3614 39.6543 65.5055 39.4854 65.6472C39.3461 65.7641 39.2021 65.8795 39.0545 65.9928C38.7207 66.2494 38.3686 66.4963 38.0118 66.7295C39.4715 69.0539 41.2693 71.1308 44.2345 72.3434C47.3902 73.6341 51.8339 73.9482 58.506 72.6466C58.5594 72.6355 58.6128 72.6317 58.6654 72.6343L58.6687 72.6344C58.7717 72.64 58.8701 72.6706 58.9561 72.721L58.9594 72.7229L58.9615 72.7243C59.0471 72.7755 59.1204 72.8468 59.1735 72.934L59.1752 72.9367C59.202 72.981 59.2233 73.0292 59.2384 73.0805C60.2162 76.2981 63.1348 78.4006 65.8324 78.7202C67.1462 78.8758 68.4093 78.5979 69.3259 77.777C68.0506 77.6064 66.6216 77.1948 65.0497 76.5452C64.7296 76.4128 64.5789 76.0498 64.7133 75.7349C64.8478 75.42 65.2168 75.2717 65.5368 75.4039C67.4176 76.1811 69.0587 76.6198 70.4393 76.6508C70.519 76.6358 70.6018 76.6358 70.6829 76.652C71.5995 76.6399 72.3956 76.4377 73.0645 76.0237C73.9002 75.5065 74.509 74.6573 74.9052 73.4691C74.3105 73.7065 73.6972 73.8915 73.0657 74.0244C70.223 74.6228 66.9942 74.1635 63.3937 72.6355C63.075 72.5002 62.9278 72.1357 63.0653 71.822C63.2028 71.5083 63.5731 71.3636 63.8919 71.4988C67.211 72.9075 70.1821 73.3656 72.8025 72.8139C74.6683 72.4211 76.3484 71.5133 77.8458 70.0911C72.7483 71.7468 67.5978 71.1298 62.3755 67.3466C60.9066 67.326 59.145 67.0217 57.1075 66.4378C56.7742 66.3423 56.5823 65.9985 56.6795 65.6705C56.7766 65.3426 57.1259 65.1538 57.4593 65.2494C59.4751 65.8271 61.1985 66.1232 62.6143 66.1101C63.6692 66.1002 64.5416 65.9219 65.2145 65.54C65.0263 65.3149 64.8638 65.088 64.7337 64.8617C64.4891 64.4614 64.297 64.0612 64.1554 63.6684C63.5938 63.7061 63.0104 63.7295 62.4067 63.7396C62.0596 63.7453 61.773 63.4727 61.7672 63.1312C61.7613 62.7896 62.0383 62.5077 62.3855 62.5018C62.8963 62.4934 63.3921 62.475 63.8718 62.446C63.7593 61.3031 64.1132 60.3092 64.8744 59.6876C66.0204 58.7518 68.1762 58.6104 69.5712 60.0281C70.2255 59.3633 71.0471 59.0413 71.8532 58.9834C72.12 58.3722 72.2408 57.6685 72.212 56.8647C71.0374 57.5177 69.7124 58.1308 68.2597 58.7083C67.9378 58.8363 67.5708 58.6831 67.4408 58.3664C67.3108 58.0496 67.4665 57.6886 67.7883 57.5607C69.4982 56.8809 71.0296 56.1592 72.3253 55.379C72.3775 55.3337 72.4378 55.2965 72.5042 55.27C76.0921 53.0573 77.7955 50.3726 76.3495 46.8391C74.0019 49.8336 70.4323 52.9923 66.2902 55.4811C65.994 55.6591 65.6065 55.5669 65.4256 55.2754C65.2447 54.9839 65.3383 54.6026 65.6346 54.4246C69.9884 51.8086 73.7032 48.4404 75.9176 45.3485C75.9414 45.3044 75.9707 45.263 76.0052 45.2252C76.7055 44.2317 77.2488 43.2687 77.6064 42.3701C78.1313 41.0518 78.262 39.8951 77.7762 39.0368C77.5446 38.6275 77.17 38.3004 76.6501 38.0579C74.8674 42.1813 70.199 47.3801 65.4885 51.0274C65.2156 51.2387 64.8199 51.1923 64.6051 50.9238C64.3905 50.6554 64.4377 50.266 64.7105 50.0547C69.4566 46.3796 74.1922 41.0944 75.704 37.0491L75.7051 37.0461L75.7058 37.0445C75.7094 37.0347 75.7131 37.0249 75.7166 37.0153C76.249 35.5761 76.3817 34.3185 75.8123 33.4053C75.5234 32.9417 75.0518 32.5855 74.3866 32.3378C72.638 37.0128 68.5602 43.4234 64.0363 47.3559C63.7762 47.5821 63.3783 47.5578 63.1484 47.3018C62.9186 47.0459 62.9432 46.6543 63.2034 46.4282C67.7454 42.48 71.8338 35.9459 73.3887 31.4105C73.3958 31.3848 73.4042 31.36 73.4141 31.336ZM72.081 60.2024C71.3601 60.2205 70.5959 60.5666 70.11 61.3602C69.9962 61.546 69.7917 61.6597 69.5712 61.6597C69.3507 61.6597 69.1462 61.546 69.0324 61.3602C68.192 59.9874 66.5183 59.9537 65.678 60.6401C65.2804 60.9648 65.0999 61.4592 65.0999 62.0272C65.0999 62.6983 65.3455 63.4619 65.815 64.2289C65.8182 64.2342 65.8214 64.2395 65.8245 64.245C66.4832 65.3977 68.1255 66.5302 69.571 67.3453C70.2507 66.9608 70.9703 66.5041 71.616 66.0077C71.7494 65.9052 71.8795 65.8011 72.0053 65.6955L72.1158 65.6014C72.2252 65.5071 72.3308 65.4117 72.4322 65.3154C72.8006 64.9654 73.1113 64.6064 73.3179 64.245C73.321 64.2395 73.3242 64.2342 73.3273 64.2289C73.797 63.4619 74.0425 62.6983 74.0425 62.0272C74.0425 61.4592 73.862 60.9648 73.4645 60.6401C73.123 60.3613 72.6442 60.2013 72.1394 60.2017L72.081 60.2024ZM38.6693 64.7052C38.8181 64.5803 38.961 64.4534 39.0961 64.3251C39.4646 63.9751 39.7752 63.6162 39.9818 63.2547C39.9849 63.2493 39.9881 63.2439 39.9914 63.2386C40.4609 62.4716 40.7064 61.708 40.7064 61.037C40.7064 60.4689 40.5259 59.9745 40.1284 59.6498C39.288 58.9634 37.6144 58.9971 36.7739 60.3699C36.6601 60.5557 36.4556 60.6694 36.2351 60.6694C36.0146 60.6694 35.8101 60.5557 35.6963 60.3699C34.8559 58.9971 33.1824 58.9634 32.3419 59.6498C31.9443 59.9745 31.7638 60.4689 31.7638 61.037C31.7638 61.708 32.0094 62.4716 32.4789 63.2386C32.4821 63.2439 32.4853 63.2493 32.4884 63.2547C33.1471 64.4074 34.7894 65.5399 36.2349 66.355C36.9146 65.9706 37.6343 65.5138 38.2799 65.0174C38.4133 64.9149 38.5434 64.8108 38.6693 64.7052ZM42.1771 32.3175C41.5068 32.8826 41.0105 33.6583 40.8057 34.5708L37.7172 48.334C37.4925 49.3354 37.6568 50.3329 38.111 51.1735C39.3997 51.9689 40.9501 52.6157 42.994 52.8877C45.7704 52.8452 48.3012 52.2238 50.6106 51.1994C48.5533 49.2554 47.543 46.3336 48.2024 43.3948C48.4122 42.4601 48.7745 41.5968 49.2578 40.825L42.1771 32.3175ZM62.3676 41.1376C61.3697 39.7284 59.852 38.6699 58.0149 38.2708C55.0849 37.6342 52.1746 38.8552 50.5553 41.1355L50.5536 41.1378C50.5528 41.1389 50.5521 41.1399 50.5513 41.1409L50.5502 41.1425C50.0276 41.8804 49.6401 42.7293 49.4309 43.6618C48.8336 46.3232 49.8454 48.9681 51.8275 50.6125C52.2352 50.3998 52.6358 50.1748 53.029 49.9385C51.8564 48.7055 50.8252 47.3199 50.4422 46.0889C49.5298 43.417 50.1933 41.0899 51.9021 40.2243C53.4676 39.4313 56.0088 39.834 57.2048 41.88C58.7462 40.8099 60.6081 41.0023 61.8539 41.7982C62.0274 41.5788 62.1985 41.3585 62.3676 41.1376ZM27.832 48.6922C28.3355 48.6922 28.7443 49.0944 28.7443 49.5898C28.7443 50.0852 28.3355 50.4873 27.832 50.4873C27.3286 50.4873 26.9198 50.0852 26.9198 49.5898C26.9198 49.0944 27.3286 48.6922 27.832 48.6922ZM34.6806 38.1896C33.7917 39.0399 33.2287 39.9388 32.9635 40.8893C32.5711 42.295 32.8331 43.7981 33.5778 45.3832C34.1988 46.7051 35.1522 48.0767 36.3654 49.4911C36.3424 49.0238 36.3813 48.5458 36.4887 48.0671L37.2519 44.6667C36.0113 42.5372 35.1745 40.2443 34.6806 38.1896ZM61.0646 42.7717C60.0594 42.1872 58.5448 42.1651 57.4345 43.3156C57.2827 43.4729 57.0581 43.5406 56.8428 43.4938C56.6274 43.447 56.4526 43.2927 56.3823 43.087C55.7319 41.187 53.6929 40.7094 52.4779 41.3249C51.8967 41.6194 51.5322 42.1789 51.3747 42.8808C51.1947 43.6834 51.2809 44.6606 51.6366 45.6998C51.6386 45.7056 51.6405 45.7116 51.6423 45.7175C51.9945 46.8584 53.002 48.1281 54.1024 49.2544C55.8612 48.0685 57.471 46.6608 58.9456 45.138C59.6849 44.3742 60.3907 43.5814 61.0646 42.7717ZM38.0605 30.0235C37.8663 30.0272 37.683 30.0462 37.5105 30.0804C37.6795 31.0851 37.4209 32.2982 36.6801 33.5117C36.4198 33.9651 36.0371 34.4211 35.575 34.86C35.5248 34.9076 35.4737 34.955 35.4219 35.0023C35.4676 35.5575 35.5494 36.1656 35.6695 36.81C35.695 36.8771 35.7081 36.9473 35.7092 37.0174C36.0592 38.7951 36.6969 40.8323 37.6708 42.7998L39.0834 36.5044C39.0813 36.4981 39.0793 36.4918 39.0774 36.4853C38.3817 34.1355 38.024 31.8985 38.0605 30.0235ZM66.0448 35.8053L45.8322 31.414C44.9337 31.2188 44.0383 31.3219 43.2528 31.6562L50.0233 39.7912C51.9889 37.5271 55.1278 36.3759 58.2861 37.0621C60.2953 37.4985 61.9793 38.6063 63.1482 40.0928C64.2024 38.649 65.1649 37.1974 66.0448 35.8053ZM34.3501 28.8563C33.6291 28.8745 32.8648 29.2205 32.379 30.0141C32.2652 30.2 32.0607 30.3137 31.8402 30.3137C31.6196 30.3137 31.4152 30.2 31.3013 30.0141C30.461 28.6414 28.7874 28.6078 27.9469 29.2942C27.5494 29.6187 27.3688 30.1131 27.3688 30.6812C27.3688 31.3523 27.6144 32.116 28.084 32.8828C28.0872 32.8881 28.0904 32.8936 28.0935 32.8989C28.7522 34.0517 30.3944 35.1842 31.8399 35.9994C32.5196 35.6148 33.2393 35.1581 33.885 34.6617C34.0183 34.5592 34.1484 34.455 34.2743 34.3494L34.3848 34.2555C34.4941 34.161 34.5999 34.0656 34.7012 33.9694C35.0697 33.6195 35.3803 33.2605 35.5868 32.8989C35.59 32.8936 35.5931 32.8881 35.5964 32.8829C36.0659 32.116 36.3115 31.3523 36.3115 30.6812C36.3115 30.1131 36.1309 29.6187 35.7334 29.2942C35.3921 29.0153 34.9132 28.8553 34.4084 28.8556L34.3501 28.8563ZM42.4572 25.6977C41.7485 25.6666 41.1689 25.8235 40.7131 26.1584C40.126 26.5898 39.7542 27.2948 39.538 28.1788C39.1721 29.6744 39.2594 31.6489 39.7054 33.8335C40.0974 32.6159 40.9012 31.6179 41.9281 30.9573C41.9368 30.9515 41.9456 30.9459 41.9545 30.9405C42.1076 30.8432 42.2656 30.7535 42.428 30.6715C42.2811 28.9352 42.3011 27.2193 42.4572 25.6977ZM47.2251 30.449C46.4151 27.3917 46.1721 24.1122 45.74 22.2593C45.6675 21.9487 45.5909 21.6831 45.5016 21.4735C45.4656 21.3893 45.3998 21.2857 45.3683 21.2381C45.226 21.2429 45.1053 21.3423 44.984 21.4752C44.7265 21.7575 44.5109 22.1927 44.3219 22.7351C43.7068 24.5011 43.445 27.3146 43.6548 30.2245C44.435 30.0408 45.2682 30.0237 46.1034 30.2052L47.2251 30.449Z" fill="white"/>
</g>
</svg>
