<svg width="80" height="80" viewBox="0 0 80 80" fill="none" xmlns="http://www.w3.org/2000/svg">
<g id="Love">
<path id="Vector" d="M68.41 37.3799C69.69 34.9399 70.415 32.4852 70.415 29.9977C70.415 17.7502 62.02 11.2477 51.665 11.2477C46.205 11.2477 41.265 15.0227 37.835 18.7477C34.41 15.0477 29.5275 11.2477 24.085 11.2477C13.73 11.2477 5.33496 17.8977 5.33496 29.9977C5.33496 42.0977 22.835 53.7477 37.835 66.2477C39.72 64.6777 41.645 63.1225 43.57 61.5825" stroke="white" stroke-width="2" stroke-linecap="round" stroke-linejoin="round"/>
<path id="Vector_2" d="M69.7175 45.1551C69.81 44.6501 69.86 44.145 69.86 43.6375C69.86 35.9975 64.6025 31.9425 58.1175 31.9425C54.6975 31.9425 51.6025 34.2974 49.4575 36.6199C47.3125 34.3124 44.2525 31.9449 40.845 31.9449C34.36 31.9449 29.1025 36.09 29.1025 43.6375C29.1025 51.185 40.0625 58.4526 49.4575 66.2476C51.455 64.5901 53.5275 62.9599 55.55 61.3474" stroke="white" stroke-width="2" stroke-linecap="round" stroke-linejoin="round"/>
<path id="Vector_3" d="M56.4298 44.8301C52.3548 44.8301 49.0498 47.4199 49.0498 52.1299C49.0498 56.8424 55.9373 61.3801 61.8423 66.2476C67.7423 61.3801 74.6623 56.8999 74.6623 52.1299C74.6623 47.3624 71.3573 44.8301 67.2823 44.8301C65.1323 44.8301 63.1898 46.3 61.8423 47.75C60.4923 46.3075 58.5723 44.8301 56.4298 44.8301Z" stroke="white" stroke-width="2" stroke-linecap="round" stroke-linejoin="round"/>
</g>
</svg>
